<mxfile host="app.diagrams.net" modified="2023-07-20T15:00:12.078Z" agent="Mozilla/5.0 (Windows NT 10.0; Win64; x64) AppleWebKit/537.36 (KHTML, like Gecko) Chrome/114.0.0.0 Safari/537.36" etag="neTu8GdUDT7xOe6SrHL0" version="21.6.3" type="onedrive" pages="2">
  <diagram id="bicKf4cbVVsq7q_7BcGE" name="Page-2">
    <mxGraphModel grid="1" page="1" gridSize="10" guides="1" tooltips="1" connect="1" arrows="1" fold="1" pageScale="1" pageWidth="827" pageHeight="1169" math="0" shadow="0">
      <root>
        <mxCell id="0" />
        <mxCell id="1" parent="0" />
        <mxCell id="FRETqe36La-RbUftxrlO-5" value="ConseillerAgence" style="swimlane;fontStyle=0;childLayout=stackLayout;horizontal=1;startSize=30;horizontalStack=0;resizeParent=1;resizeParentMax=0;resizeLast=0;collapsible=1;marginBottom=0;whiteSpace=wrap;html=1;" vertex="1" parent="1">
          <mxGeometry x="320" y="40" width="120" height="60" as="geometry" />
        </mxCell>
        <mxCell id="FRETqe36La-RbUftxrlO-30" value="&lt;u&gt;ConseillerAgence&lt;/u&gt;" style="text;strokeColor=none;fillColor=none;align=left;verticalAlign=middle;spacingLeft=4;spacingRight=4;overflow=hidden;points=[[0,0.5],[1,0.5]];portConstraint=eastwest;rotatable=0;whiteSpace=wrap;html=1;" vertex="1" parent="FRETqe36La-RbUftxrlO-5">
          <mxGeometry y="30" width="120" height="30" as="geometry" />
        </mxCell>
        <mxCell id="FRETqe36La-RbUftxrlO-9" value="Propriétaires" style="swimlane;fontStyle=0;childLayout=stackLayout;horizontal=1;startSize=30;horizontalStack=0;resizeParent=1;resizeParentMax=0;resizeLast=0;collapsible=1;marginBottom=0;whiteSpace=wrap;html=1;" vertex="1" parent="1">
          <mxGeometry x="320" y="360" width="120" height="240" as="geometry" />
        </mxCell>
        <mxCell id="FRETqe36La-RbUftxrlO-32" value="&lt;u&gt;Propriétaire&lt;/u&gt;" style="text;strokeColor=none;fillColor=none;align=left;verticalAlign=middle;spacingLeft=4;spacingRight=4;overflow=hidden;points=[[0,0.5],[1,0.5]];portConstraint=eastwest;rotatable=0;whiteSpace=wrap;html=1;" vertex="1" parent="FRETqe36La-RbUftxrlO-9">
          <mxGeometry y="30" width="120" height="30" as="geometry" />
        </mxCell>
        <mxCell id="q8vUOUOHisi6w7Gpb6_h-8" value="Nom" style="text;strokeColor=none;fillColor=none;align=left;verticalAlign=middle;spacingLeft=4;spacingRight=4;overflow=hidden;points=[[0,0.5],[1,0.5]];portConstraint=eastwest;rotatable=0;whiteSpace=wrap;html=1;" vertex="1" parent="FRETqe36La-RbUftxrlO-9">
          <mxGeometry y="60" width="120" height="30" as="geometry" />
        </mxCell>
        <mxCell id="q8vUOUOHisi6w7Gpb6_h-7" value="Prénom" style="text;strokeColor=none;fillColor=none;align=left;verticalAlign=middle;spacingLeft=4;spacingRight=4;overflow=hidden;points=[[0,0.5],[1,0.5]];portConstraint=eastwest;rotatable=0;whiteSpace=wrap;html=1;" vertex="1" parent="FRETqe36La-RbUftxrlO-9">
          <mxGeometry y="90" width="120" height="30" as="geometry" />
        </mxCell>
        <mxCell id="q8vUOUOHisi6w7Gpb6_h-6" value="Adresse" style="text;strokeColor=none;fillColor=none;align=left;verticalAlign=middle;spacingLeft=4;spacingRight=4;overflow=hidden;points=[[0,0.5],[1,0.5]];portConstraint=eastwest;rotatable=0;whiteSpace=wrap;html=1;" vertex="1" parent="FRETqe36La-RbUftxrlO-9">
          <mxGeometry y="120" width="120" height="30" as="geometry" />
        </mxCell>
        <mxCell id="q8vUOUOHisi6w7Gpb6_h-4" value="Téléphone" style="text;strokeColor=none;fillColor=none;align=left;verticalAlign=middle;spacingLeft=4;spacingRight=4;overflow=hidden;points=[[0,0.5],[1,0.5]];portConstraint=eastwest;rotatable=0;whiteSpace=wrap;html=1;" vertex="1" parent="FRETqe36La-RbUftxrlO-9">
          <mxGeometry y="150" width="120" height="30" as="geometry" />
        </mxCell>
        <mxCell id="q8vUOUOHisi6w7Gpb6_h-5" value="Fax" style="text;strokeColor=none;fillColor=none;align=left;verticalAlign=middle;spacingLeft=4;spacingRight=4;overflow=hidden;points=[[0,0.5],[1,0.5]];portConstraint=eastwest;rotatable=0;whiteSpace=wrap;html=1;" vertex="1" parent="FRETqe36La-RbUftxrlO-9">
          <mxGeometry y="180" width="120" height="30" as="geometry" />
        </mxCell>
        <mxCell id="q8vUOUOHisi6w7Gpb6_h-3" value="Mail" style="text;strokeColor=none;fillColor=none;align=left;verticalAlign=middle;spacingLeft=4;spacingRight=4;overflow=hidden;points=[[0,0.5],[1,0.5]];portConstraint=eastwest;rotatable=0;whiteSpace=wrap;html=1;" vertex="1" parent="FRETqe36La-RbUftxrlO-9">
          <mxGeometry y="210" width="120" height="30" as="geometry" />
        </mxCell>
        <mxCell id="FRETqe36La-RbUftxrlO-13" value="Véhicule" style="swimlane;fontStyle=0;childLayout=stackLayout;horizontal=1;startSize=30;horizontalStack=0;resizeParent=1;resizeParentMax=0;resizeLast=0;collapsible=1;marginBottom=0;whiteSpace=wrap;html=1;" vertex="1" parent="1">
          <mxGeometry x="40" y="220" width="140" height="240" as="geometry" />
        </mxCell>
        <mxCell id="FRETqe36La-RbUftxrlO-31" value="&lt;u&gt;Véhicule&lt;/u&gt;" style="text;strokeColor=none;fillColor=none;align=left;verticalAlign=middle;spacingLeft=4;spacingRight=4;overflow=hidden;points=[[0,0.5],[1,0.5]];portConstraint=eastwest;rotatable=0;whiteSpace=wrap;html=1;" vertex="1" parent="FRETqe36La-RbUftxrlO-13">
          <mxGeometry y="30" width="140" height="30" as="geometry" />
        </mxCell>
        <mxCell id="q8vUOUOHisi6w7Gpb6_h-1" value="CarteGrise" style="text;strokeColor=none;fillColor=none;align=left;verticalAlign=middle;spacingLeft=4;spacingRight=4;overflow=hidden;points=[[0,0.5],[1,0.5]];portConstraint=eastwest;rotatable=0;whiteSpace=wrap;html=1;" vertex="1" parent="FRETqe36La-RbUftxrlO-13">
          <mxGeometry y="60" width="140" height="30" as="geometry" />
        </mxCell>
        <mxCell id="q8vUOUOHisi6w7Gpb6_h-12" value="TypeVéhicule" style="text;strokeColor=none;fillColor=none;align=left;verticalAlign=middle;spacingLeft=4;spacingRight=4;overflow=hidden;points=[[0,0.5],[1,0.5]];portConstraint=eastwest;rotatable=0;whiteSpace=wrap;html=1;" vertex="1" parent="FRETqe36La-RbUftxrlO-13">
          <mxGeometry y="90" width="140" height="30" as="geometry" />
        </mxCell>
        <mxCell id="q8vUOUOHisi6w7Gpb6_h-11" value="Marque" style="text;strokeColor=none;fillColor=none;align=left;verticalAlign=middle;spacingLeft=4;spacingRight=4;overflow=hidden;points=[[0,0.5],[1,0.5]];portConstraint=eastwest;rotatable=0;whiteSpace=wrap;html=1;" vertex="1" parent="FRETqe36La-RbUftxrlO-13">
          <mxGeometry y="120" width="140" height="30" as="geometry" />
        </mxCell>
        <mxCell id="q8vUOUOHisi6w7Gpb6_h-10" value="NumImatriculation" style="text;strokeColor=none;fillColor=none;align=left;verticalAlign=middle;spacingLeft=4;spacingRight=4;overflow=hidden;points=[[0,0.5],[1,0.5]];portConstraint=eastwest;rotatable=0;whiteSpace=wrap;html=1;" vertex="1" parent="FRETqe36La-RbUftxrlO-13">
          <mxGeometry y="150" width="140" height="30" as="geometry" />
        </mxCell>
        <mxCell id="q8vUOUOHisi6w7Gpb6_h-9" value="DateMiseEnCirculation" style="text;strokeColor=none;fillColor=none;align=left;verticalAlign=middle;spacingLeft=4;spacingRight=4;overflow=hidden;points=[[0,0.5],[1,0.5]];portConstraint=eastwest;rotatable=0;whiteSpace=wrap;html=1;" vertex="1" parent="FRETqe36La-RbUftxrlO-13">
          <mxGeometry y="180" width="140" height="30" as="geometry" />
        </mxCell>
        <mxCell id="q8vUOUOHisi6w7Gpb6_h-14" value="PuissanceFiscale" style="text;strokeColor=none;fillColor=none;align=left;verticalAlign=middle;spacingLeft=4;spacingRight=4;overflow=hidden;points=[[0,0.5],[1,0.5]];portConstraint=eastwest;rotatable=0;whiteSpace=wrap;html=1;" vertex="1" parent="FRETqe36La-RbUftxrlO-13">
          <mxGeometry y="210" width="140" height="30" as="geometry" />
        </mxCell>
        <mxCell id="q8vUOUOHisi6w7Gpb6_h-21" value="VéhiculeTourisme" style="swimlane;fontStyle=0;childLayout=stackLayout;horizontal=1;startSize=30;horizontalStack=0;resizeParent=1;resizeParentMax=0;resizeLast=0;collapsible=1;marginBottom=0;whiteSpace=wrap;html=1;" vertex="1" parent="1">
          <mxGeometry x="620" y="40" width="140" height="300" as="geometry" />
        </mxCell>
        <mxCell id="q8vUOUOHisi6w7Gpb6_h-22" value="&lt;u&gt;Véhicule&lt;/u&gt;" style="text;strokeColor=none;fillColor=none;align=left;verticalAlign=middle;spacingLeft=4;spacingRight=4;overflow=hidden;points=[[0,0.5],[1,0.5]];portConstraint=eastwest;rotatable=0;whiteSpace=wrap;html=1;" vertex="1" parent="q8vUOUOHisi6w7Gpb6_h-21">
          <mxGeometry y="30" width="140" height="30" as="geometry" />
        </mxCell>
        <mxCell id="q8vUOUOHisi6w7Gpb6_h-23" value="CarteGrise" style="text;strokeColor=none;fillColor=none;align=left;verticalAlign=middle;spacingLeft=4;spacingRight=4;overflow=hidden;points=[[0,0.5],[1,0.5]];portConstraint=eastwest;rotatable=0;whiteSpace=wrap;html=1;" vertex="1" parent="q8vUOUOHisi6w7Gpb6_h-21">
          <mxGeometry y="60" width="140" height="30" as="geometry" />
        </mxCell>
        <mxCell id="q8vUOUOHisi6w7Gpb6_h-24" value="Type" style="text;strokeColor=none;fillColor=none;align=left;verticalAlign=middle;spacingLeft=4;spacingRight=4;overflow=hidden;points=[[0,0.5],[1,0.5]];portConstraint=eastwest;rotatable=0;whiteSpace=wrap;html=1;" vertex="1" parent="q8vUOUOHisi6w7Gpb6_h-21">
          <mxGeometry y="90" width="140" height="30" as="geometry" />
        </mxCell>
        <mxCell id="q8vUOUOHisi6w7Gpb6_h-25" value="Marque" style="text;strokeColor=none;fillColor=none;align=left;verticalAlign=middle;spacingLeft=4;spacingRight=4;overflow=hidden;points=[[0,0.5],[1,0.5]];portConstraint=eastwest;rotatable=0;whiteSpace=wrap;html=1;" vertex="1" parent="q8vUOUOHisi6w7Gpb6_h-21">
          <mxGeometry y="120" width="140" height="30" as="geometry" />
        </mxCell>
        <mxCell id="q8vUOUOHisi6w7Gpb6_h-26" value="NumImatriculation" style="text;strokeColor=none;fillColor=none;align=left;verticalAlign=middle;spacingLeft=4;spacingRight=4;overflow=hidden;points=[[0,0.5],[1,0.5]];portConstraint=eastwest;rotatable=0;whiteSpace=wrap;html=1;" vertex="1" parent="q8vUOUOHisi6w7Gpb6_h-21">
          <mxGeometry y="150" width="140" height="30" as="geometry" />
        </mxCell>
        <mxCell id="q8vUOUOHisi6w7Gpb6_h-27" value="DateMiseEnCirculation" style="text;strokeColor=none;fillColor=none;align=left;verticalAlign=middle;spacingLeft=4;spacingRight=4;overflow=hidden;points=[[0,0.5],[1,0.5]];portConstraint=eastwest;rotatable=0;whiteSpace=wrap;html=1;" vertex="1" parent="q8vUOUOHisi6w7Gpb6_h-21">
          <mxGeometry y="180" width="140" height="30" as="geometry" />
        </mxCell>
        <mxCell id="q8vUOUOHisi6w7Gpb6_h-28" value="PuissanceFiscale" style="text;strokeColor=none;fillColor=none;align=left;verticalAlign=middle;spacingLeft=4;spacingRight=4;overflow=hidden;points=[[0,0.5],[1,0.5]];portConstraint=eastwest;rotatable=0;whiteSpace=wrap;html=1;" vertex="1" parent="q8vUOUOHisi6w7Gpb6_h-21">
          <mxGeometry y="210" width="140" height="30" as="geometry" />
        </mxCell>
        <mxCell id="q8vUOUOHisi6w7Gpb6_h-33" value="NbPortes" style="text;strokeColor=none;fillColor=none;align=left;verticalAlign=middle;spacingLeft=4;spacingRight=4;overflow=hidden;points=[[0,0.5],[1,0.5]];portConstraint=eastwest;rotatable=0;whiteSpace=wrap;html=1;" vertex="1" parent="q8vUOUOHisi6w7Gpb6_h-21">
          <mxGeometry y="240" width="140" height="30" as="geometry" />
        </mxCell>
        <mxCell id="q8vUOUOHisi6w7Gpb6_h-34" value="PassagersAutorisés" style="text;strokeColor=none;fillColor=none;align=left;verticalAlign=middle;spacingLeft=4;spacingRight=4;overflow=hidden;points=[[0,0.5],[1,0.5]];portConstraint=eastwest;rotatable=0;whiteSpace=wrap;html=1;" vertex="1" parent="q8vUOUOHisi6w7Gpb6_h-21">
          <mxGeometry y="270" width="140" height="30" as="geometry" />
        </mxCell>
        <mxCell id="q8vUOUOHisi6w7Gpb6_h-35" value="VéhiculeUtilitaire" style="swimlane;fontStyle=0;childLayout=stackLayout;horizontal=1;startSize=30;horizontalStack=0;resizeParent=1;resizeParentMax=0;resizeLast=0;collapsible=1;marginBottom=0;whiteSpace=wrap;html=1;" vertex="1" parent="1">
          <mxGeometry x="650" y="470" width="140" height="360" as="geometry" />
        </mxCell>
        <mxCell id="q8vUOUOHisi6w7Gpb6_h-36" value="&lt;u&gt;Véhicule&lt;/u&gt;" style="text;strokeColor=none;fillColor=none;align=left;verticalAlign=middle;spacingLeft=4;spacingRight=4;overflow=hidden;points=[[0,0.5],[1,0.5]];portConstraint=eastwest;rotatable=0;whiteSpace=wrap;html=1;" vertex="1" parent="q8vUOUOHisi6w7Gpb6_h-35">
          <mxGeometry y="30" width="140" height="30" as="geometry" />
        </mxCell>
        <mxCell id="q8vUOUOHisi6w7Gpb6_h-37" value="CarteGrise" style="text;strokeColor=none;fillColor=none;align=left;verticalAlign=middle;spacingLeft=4;spacingRight=4;overflow=hidden;points=[[0,0.5],[1,0.5]];portConstraint=eastwest;rotatable=0;whiteSpace=wrap;html=1;" vertex="1" parent="q8vUOUOHisi6w7Gpb6_h-35">
          <mxGeometry y="60" width="140" height="30" as="geometry" />
        </mxCell>
        <mxCell id="q8vUOUOHisi6w7Gpb6_h-38" value="Type" style="text;strokeColor=none;fillColor=none;align=left;verticalAlign=middle;spacingLeft=4;spacingRight=4;overflow=hidden;points=[[0,0.5],[1,0.5]];portConstraint=eastwest;rotatable=0;whiteSpace=wrap;html=1;" vertex="1" parent="q8vUOUOHisi6w7Gpb6_h-35">
          <mxGeometry y="90" width="140" height="30" as="geometry" />
        </mxCell>
        <mxCell id="q8vUOUOHisi6w7Gpb6_h-39" value="Marque" style="text;strokeColor=none;fillColor=none;align=left;verticalAlign=middle;spacingLeft=4;spacingRight=4;overflow=hidden;points=[[0,0.5],[1,0.5]];portConstraint=eastwest;rotatable=0;whiteSpace=wrap;html=1;" vertex="1" parent="q8vUOUOHisi6w7Gpb6_h-35">
          <mxGeometry y="120" width="140" height="30" as="geometry" />
        </mxCell>
        <mxCell id="q8vUOUOHisi6w7Gpb6_h-40" value="NumImatriculation" style="text;strokeColor=none;fillColor=none;align=left;verticalAlign=middle;spacingLeft=4;spacingRight=4;overflow=hidden;points=[[0,0.5],[1,0.5]];portConstraint=eastwest;rotatable=0;whiteSpace=wrap;html=1;" vertex="1" parent="q8vUOUOHisi6w7Gpb6_h-35">
          <mxGeometry y="150" width="140" height="30" as="geometry" />
        </mxCell>
        <mxCell id="q8vUOUOHisi6w7Gpb6_h-41" value="DateMiseEnCirculation" style="text;strokeColor=none;fillColor=none;align=left;verticalAlign=middle;spacingLeft=4;spacingRight=4;overflow=hidden;points=[[0,0.5],[1,0.5]];portConstraint=eastwest;rotatable=0;whiteSpace=wrap;html=1;" vertex="1" parent="q8vUOUOHisi6w7Gpb6_h-35">
          <mxGeometry y="180" width="140" height="30" as="geometry" />
        </mxCell>
        <mxCell id="q8vUOUOHisi6w7Gpb6_h-42" value="PuissanceFiscale" style="text;strokeColor=none;fillColor=none;align=left;verticalAlign=middle;spacingLeft=4;spacingRight=4;overflow=hidden;points=[[0,0.5],[1,0.5]];portConstraint=eastwest;rotatable=0;whiteSpace=wrap;html=1;" vertex="1" parent="q8vUOUOHisi6w7Gpb6_h-35">
          <mxGeometry y="210" width="140" height="30" as="geometry" />
        </mxCell>
        <mxCell id="q8vUOUOHisi6w7Gpb6_h-43" value="PoidsAVide" style="text;strokeColor=none;fillColor=none;align=left;verticalAlign=middle;spacingLeft=4;spacingRight=4;overflow=hidden;points=[[0,0.5],[1,0.5]];portConstraint=eastwest;rotatable=0;whiteSpace=wrap;html=1;" vertex="1" parent="q8vUOUOHisi6w7Gpb6_h-35">
          <mxGeometry y="240" width="140" height="30" as="geometry" />
        </mxCell>
        <mxCell id="q8vUOUOHisi6w7Gpb6_h-44" value="PoidsAutoriseEnCharge" style="text;strokeColor=none;fillColor=none;align=left;verticalAlign=middle;spacingLeft=4;spacingRight=4;overflow=hidden;points=[[0,0.5],[1,0.5]];portConstraint=eastwest;rotatable=0;whiteSpace=wrap;html=1;" vertex="1" parent="q8vUOUOHisi6w7Gpb6_h-35">
          <mxGeometry y="270" width="140" height="30" as="geometry" />
        </mxCell>
        <mxCell id="q8vUOUOHisi6w7Gpb6_h-46" value="Longueur" style="text;strokeColor=none;fillColor=none;align=left;verticalAlign=middle;spacingLeft=4;spacingRight=4;overflow=hidden;points=[[0,0.5],[1,0.5]];portConstraint=eastwest;rotatable=0;whiteSpace=wrap;html=1;" vertex="1" parent="q8vUOUOHisi6w7Gpb6_h-35">
          <mxGeometry y="300" width="140" height="30" as="geometry" />
        </mxCell>
        <mxCell id="q8vUOUOHisi6w7Gpb6_h-45" value="Largeur" style="text;strokeColor=none;fillColor=none;align=left;verticalAlign=middle;spacingLeft=4;spacingRight=4;overflow=hidden;points=[[0,0.5],[1,0.5]];portConstraint=eastwest;rotatable=0;whiteSpace=wrap;html=1;" vertex="1" parent="q8vUOUOHisi6w7Gpb6_h-35">
          <mxGeometry y="330" width="140" height="30" as="geometry" />
        </mxCell>
        <mxCell id="q8vUOUOHisi6w7Gpb6_h-47" value="Contrats" style="swimlane;fontStyle=0;childLayout=stackLayout;horizontal=1;startSize=30;horizontalStack=0;resizeParent=1;resizeParentMax=0;resizeLast=0;collapsible=1;marginBottom=0;whiteSpace=wrap;html=1;" vertex="1" parent="1">
          <mxGeometry x="40" y="690" width="140" height="150" as="geometry" />
        </mxCell>
        <mxCell id="q8vUOUOHisi6w7Gpb6_h-48" value="Contrat" style="text;strokeColor=none;fillColor=none;align=left;verticalAlign=middle;spacingLeft=4;spacingRight=4;overflow=hidden;points=[[0,0.5],[1,0.5]];portConstraint=eastwest;rotatable=0;whiteSpace=wrap;html=1;" vertex="1" parent="q8vUOUOHisi6w7Gpb6_h-47">
          <mxGeometry y="30" width="140" height="30" as="geometry" />
        </mxCell>
        <mxCell id="q8vUOUOHisi6w7Gpb6_h-49" value="Date" style="text;strokeColor=none;fillColor=none;align=left;verticalAlign=middle;spacingLeft=4;spacingRight=4;overflow=hidden;points=[[0,0.5],[1,0.5]];portConstraint=eastwest;rotatable=0;whiteSpace=wrap;html=1;" vertex="1" parent="q8vUOUOHisi6w7Gpb6_h-47">
          <mxGeometry y="60" width="140" height="30" as="geometry" />
        </mxCell>
        <mxCell id="q8vUOUOHisi6w7Gpb6_h-50" value="NumContrat" style="text;strokeColor=none;fillColor=none;align=left;verticalAlign=middle;spacingLeft=4;spacingRight=4;overflow=hidden;points=[[0,0.5],[1,0.5]];portConstraint=eastwest;rotatable=0;whiteSpace=wrap;html=1;" vertex="1" parent="q8vUOUOHisi6w7Gpb6_h-47">
          <mxGeometry y="90" width="140" height="30" as="geometry" />
        </mxCell>
        <mxCell id="q8vUOUOHisi6w7Gpb6_h-51" value="CatégorieContrat" style="text;strokeColor=none;fillColor=none;align=left;verticalAlign=middle;spacingLeft=4;spacingRight=4;overflow=hidden;points=[[0,0.5],[1,0.5]];portConstraint=eastwest;rotatable=0;whiteSpace=wrap;html=1;" vertex="1" parent="q8vUOUOHisi6w7Gpb6_h-47">
          <mxGeometry y="120" width="140" height="30" as="geometry" />
        </mxCell>
        <mxCell id="e58rWvh5XtvXojWl8d2b-1" value="Loue" style="ellipse;whiteSpace=wrap;html=1;" vertex="1" parent="1">
          <mxGeometry x="440" y="230" width="120" height="80" as="geometry" />
        </mxCell>
        <mxCell id="e58rWvh5XtvXojWl8d2b-5" value="" style="endArrow=none;html=1;rounded=0;entryX=0;entryY=0.5;entryDx=0;entryDy=0;exitX=1.01;exitY=0.796;exitDx=0;exitDy=0;exitPerimeter=0;" edge="1" parent="1" source="FRETqe36La-RbUftxrlO-31" target="e58rWvh5XtvXojWl8d2b-1">
          <mxGeometry width="50" height="50" relative="1" as="geometry">
            <mxPoint x="190" y="270" as="sourcePoint" />
            <mxPoint x="230" y="250" as="targetPoint" />
          </mxGeometry>
        </mxCell>
        <mxCell id="e58rWvh5XtvXojWl8d2b-8" value="" style="endArrow=none;html=1;rounded=0;entryX=0.201;entryY=0.889;entryDx=0;entryDy=0;entryPerimeter=0;" edge="1" parent="1" target="e58rWvh5XtvXojWl8d2b-1">
          <mxGeometry width="50" height="50" relative="1" as="geometry">
            <mxPoint x="414" y="360" as="sourcePoint" />
            <mxPoint x="464" y="310" as="targetPoint" />
          </mxGeometry>
        </mxCell>
        <mxCell id="e58rWvh5XtvXojWl8d2b-9" value="" style="endArrow=none;html=1;rounded=0;entryX=0;entryY=0.5;entryDx=0;entryDy=0;" edge="1" parent="1" target="q8vUOUOHisi6w7Gpb6_h-26">
          <mxGeometry width="50" height="50" relative="1" as="geometry">
            <mxPoint x="550" y="250" as="sourcePoint" />
            <mxPoint x="600" y="200" as="targetPoint" />
          </mxGeometry>
        </mxCell>
        <mxCell id="e58rWvh5XtvXojWl8d2b-10" value="" style="endArrow=none;html=1;rounded=0;entryX=1;entryY=1;entryDx=0;entryDy=0;" edge="1" parent="1" source="q8vUOUOHisi6w7Gpb6_h-35" target="e58rWvh5XtvXojWl8d2b-1">
          <mxGeometry width="50" height="50" relative="1" as="geometry">
            <mxPoint x="475" y="360" as="sourcePoint" />
            <mxPoint x="525" y="310" as="targetPoint" />
            <Array as="points">
              <mxPoint x="540" y="410" />
            </Array>
          </mxGeometry>
        </mxCell>
        <mxCell id="e58rWvh5XtvXojWl8d2b-11" value="Attaché à" style="ellipse;whiteSpace=wrap;html=1;" vertex="1" parent="1">
          <mxGeometry x="120" y="560" width="120" height="80" as="geometry" />
        </mxCell>
        <mxCell id="e58rWvh5XtvXojWl8d2b-13" value="" style="endArrow=none;html=1;rounded=0;entryX=0;entryY=1;entryDx=0;entryDy=0;" edge="1" parent="1" target="e58rWvh5XtvXojWl8d2b-11">
          <mxGeometry width="50" height="50" relative="1" as="geometry">
            <mxPoint x="140" y="690" as="sourcePoint" />
            <mxPoint x="190" y="640" as="targetPoint" />
          </mxGeometry>
        </mxCell>
        <mxCell id="e58rWvh5XtvXojWl8d2b-14" value="" style="endArrow=none;html=1;rounded=0;entryX=0;entryY=0.5;entryDx=0;entryDy=0;" edge="1" parent="1" target="q8vUOUOHisi6w7Gpb6_h-8">
          <mxGeometry width="50" height="50" relative="1" as="geometry">
            <mxPoint x="200" y="560" as="sourcePoint" />
            <mxPoint x="250" y="510" as="targetPoint" />
            <Array as="points">
              <mxPoint x="200" y="480" />
            </Array>
          </mxGeometry>
        </mxCell>
        <mxCell id="e58rWvh5XtvXojWl8d2b-15" value="Enregistre" style="ellipse;whiteSpace=wrap;html=1;" vertex="1" parent="1">
          <mxGeometry x="120" y="80" width="120" height="80" as="geometry" />
        </mxCell>
        <mxCell id="e58rWvh5XtvXojWl8d2b-16" value="" style="endArrow=none;html=1;rounded=0;entryX=0.279;entryY=0.956;entryDx=0;entryDy=0;entryPerimeter=0;" edge="1" parent="1" target="e58rWvh5XtvXojWl8d2b-15">
          <mxGeometry width="50" height="50" relative="1" as="geometry">
            <mxPoint x="110" y="220" as="sourcePoint" />
            <mxPoint x="160" y="170" as="targetPoint" />
            <Array as="points">
              <mxPoint x="110" y="190" />
            </Array>
          </mxGeometry>
        </mxCell>
        <mxCell id="e58rWvh5XtvXojWl8d2b-17" value="" style="endArrow=none;html=1;rounded=0;entryX=0;entryY=0.333;entryDx=0;entryDy=0;entryPerimeter=0;exitX=1;exitY=0;exitDx=0;exitDy=0;" edge="1" parent="1" source="e58rWvh5XtvXojWl8d2b-15" target="FRETqe36La-RbUftxrlO-30">
          <mxGeometry width="50" height="50" relative="1" as="geometry">
            <mxPoint x="240" y="110" as="sourcePoint" />
            <mxPoint x="290" y="60" as="targetPoint" />
            <Array as="points">
              <mxPoint x="260" y="80" />
            </Array>
          </mxGeometry>
        </mxCell>
      </root>
    </mxGraphModel>
  </diagram>
  <diagram name="Copie de Page-2" id="fmWE73NafmrZuf33QuC1">
    <mxGraphModel grid="1" page="1" gridSize="10" guides="1" tooltips="1" connect="1" arrows="1" fold="1" pageScale="1" pageWidth="827" pageHeight="1169" math="0" shadow="0">
      <root>
        <mxCell id="3KaGFFXlT2Mxp6EbRNfA-0" />
        <mxCell id="3KaGFFXlT2Mxp6EbRNfA-1" parent="3KaGFFXlT2Mxp6EbRNfA-0" />
        <mxCell id="3KaGFFXlT2Mxp6EbRNfA-2" value="ConseillerAgence" style="swimlane;fontStyle=0;childLayout=stackLayout;horizontal=1;startSize=30;horizontalStack=0;resizeParent=1;resizeParentMax=0;resizeLast=0;collapsible=1;marginBottom=0;whiteSpace=wrap;html=1;" vertex="1" parent="3KaGFFXlT2Mxp6EbRNfA-1">
          <mxGeometry x="320" y="40" width="120" height="60" as="geometry" />
        </mxCell>
        <mxCell id="3KaGFFXlT2Mxp6EbRNfA-3" value="&lt;u&gt;ConseillerAgence&lt;/u&gt;" style="text;strokeColor=none;fillColor=none;align=left;verticalAlign=middle;spacingLeft=4;spacingRight=4;overflow=hidden;points=[[0,0.5],[1,0.5]];portConstraint=eastwest;rotatable=0;whiteSpace=wrap;html=1;" vertex="1" parent="3KaGFFXlT2Mxp6EbRNfA-2">
          <mxGeometry y="30" width="120" height="30" as="geometry" />
        </mxCell>
        <mxCell id="3KaGFFXlT2Mxp6EbRNfA-4" value="Propriétaires" style="swimlane;fontStyle=0;childLayout=stackLayout;horizontal=1;startSize=30;horizontalStack=0;resizeParent=1;resizeParentMax=0;resizeLast=0;collapsible=1;marginBottom=0;whiteSpace=wrap;html=1;" vertex="1" parent="3KaGFFXlT2Mxp6EbRNfA-1">
          <mxGeometry x="320" y="360" width="120" height="240" as="geometry" />
        </mxCell>
        <mxCell id="3KaGFFXlT2Mxp6EbRNfA-5" value="&lt;u&gt;Propriétaire&lt;/u&gt;" style="text;strokeColor=none;fillColor=none;align=left;verticalAlign=middle;spacingLeft=4;spacingRight=4;overflow=hidden;points=[[0,0.5],[1,0.5]];portConstraint=eastwest;rotatable=0;whiteSpace=wrap;html=1;" vertex="1" parent="3KaGFFXlT2Mxp6EbRNfA-4">
          <mxGeometry y="30" width="120" height="30" as="geometry" />
        </mxCell>
        <mxCell id="3KaGFFXlT2Mxp6EbRNfA-6" value="Nom" style="text;strokeColor=none;fillColor=none;align=left;verticalAlign=middle;spacingLeft=4;spacingRight=4;overflow=hidden;points=[[0,0.5],[1,0.5]];portConstraint=eastwest;rotatable=0;whiteSpace=wrap;html=1;" vertex="1" parent="3KaGFFXlT2Mxp6EbRNfA-4">
          <mxGeometry y="60" width="120" height="30" as="geometry" />
        </mxCell>
        <mxCell id="3KaGFFXlT2Mxp6EbRNfA-7" value="Prénom" style="text;strokeColor=none;fillColor=none;align=left;verticalAlign=middle;spacingLeft=4;spacingRight=4;overflow=hidden;points=[[0,0.5],[1,0.5]];portConstraint=eastwest;rotatable=0;whiteSpace=wrap;html=1;" vertex="1" parent="3KaGFFXlT2Mxp6EbRNfA-4">
          <mxGeometry y="90" width="120" height="30" as="geometry" />
        </mxCell>
        <mxCell id="3KaGFFXlT2Mxp6EbRNfA-8" value="Adresse" style="text;strokeColor=none;fillColor=none;align=left;verticalAlign=middle;spacingLeft=4;spacingRight=4;overflow=hidden;points=[[0,0.5],[1,0.5]];portConstraint=eastwest;rotatable=0;whiteSpace=wrap;html=1;" vertex="1" parent="3KaGFFXlT2Mxp6EbRNfA-4">
          <mxGeometry y="120" width="120" height="30" as="geometry" />
        </mxCell>
        <mxCell id="3KaGFFXlT2Mxp6EbRNfA-9" value="Téléphone" style="text;strokeColor=none;fillColor=none;align=left;verticalAlign=middle;spacingLeft=4;spacingRight=4;overflow=hidden;points=[[0,0.5],[1,0.5]];portConstraint=eastwest;rotatable=0;whiteSpace=wrap;html=1;" vertex="1" parent="3KaGFFXlT2Mxp6EbRNfA-4">
          <mxGeometry y="150" width="120" height="30" as="geometry" />
        </mxCell>
        <mxCell id="3KaGFFXlT2Mxp6EbRNfA-10" value="Fax" style="text;strokeColor=none;fillColor=none;align=left;verticalAlign=middle;spacingLeft=4;spacingRight=4;overflow=hidden;points=[[0,0.5],[1,0.5]];portConstraint=eastwest;rotatable=0;whiteSpace=wrap;html=1;" vertex="1" parent="3KaGFFXlT2Mxp6EbRNfA-4">
          <mxGeometry y="180" width="120" height="30" as="geometry" />
        </mxCell>
        <mxCell id="3KaGFFXlT2Mxp6EbRNfA-11" value="Mail" style="text;strokeColor=none;fillColor=none;align=left;verticalAlign=middle;spacingLeft=4;spacingRight=4;overflow=hidden;points=[[0,0.5],[1,0.5]];portConstraint=eastwest;rotatable=0;whiteSpace=wrap;html=1;" vertex="1" parent="3KaGFFXlT2Mxp6EbRNfA-4">
          <mxGeometry y="210" width="120" height="30" as="geometry" />
        </mxCell>
        <mxCell id="3KaGFFXlT2Mxp6EbRNfA-12" value="Véhicule" style="swimlane;fontStyle=0;childLayout=stackLayout;horizontal=1;startSize=30;horizontalStack=0;resizeParent=1;resizeParentMax=0;resizeLast=0;collapsible=1;marginBottom=0;whiteSpace=wrap;html=1;" vertex="1" parent="3KaGFFXlT2Mxp6EbRNfA-1">
          <mxGeometry x="40" y="220" width="140" height="240" as="geometry" />
        </mxCell>
        <mxCell id="3KaGFFXlT2Mxp6EbRNfA-13" value="&lt;u&gt;Véhicule&lt;/u&gt;" style="text;strokeColor=none;fillColor=none;align=left;verticalAlign=middle;spacingLeft=4;spacingRight=4;overflow=hidden;points=[[0,0.5],[1,0.5]];portConstraint=eastwest;rotatable=0;whiteSpace=wrap;html=1;" vertex="1" parent="3KaGFFXlT2Mxp6EbRNfA-12">
          <mxGeometry y="30" width="140" height="30" as="geometry" />
        </mxCell>
        <mxCell id="3KaGFFXlT2Mxp6EbRNfA-14" value="CarteGrise" style="text;strokeColor=none;fillColor=none;align=left;verticalAlign=middle;spacingLeft=4;spacingRight=4;overflow=hidden;points=[[0,0.5],[1,0.5]];portConstraint=eastwest;rotatable=0;whiteSpace=wrap;html=1;" vertex="1" parent="3KaGFFXlT2Mxp6EbRNfA-12">
          <mxGeometry y="60" width="140" height="30" as="geometry" />
        </mxCell>
        <mxCell id="3KaGFFXlT2Mxp6EbRNfA-15" value="TypeVéhicule" style="text;strokeColor=none;fillColor=none;align=left;verticalAlign=middle;spacingLeft=4;spacingRight=4;overflow=hidden;points=[[0,0.5],[1,0.5]];portConstraint=eastwest;rotatable=0;whiteSpace=wrap;html=1;" vertex="1" parent="3KaGFFXlT2Mxp6EbRNfA-12">
          <mxGeometry y="90" width="140" height="30" as="geometry" />
        </mxCell>
        <mxCell id="3KaGFFXlT2Mxp6EbRNfA-16" value="Marque" style="text;strokeColor=none;fillColor=none;align=left;verticalAlign=middle;spacingLeft=4;spacingRight=4;overflow=hidden;points=[[0,0.5],[1,0.5]];portConstraint=eastwest;rotatable=0;whiteSpace=wrap;html=1;" vertex="1" parent="3KaGFFXlT2Mxp6EbRNfA-12">
          <mxGeometry y="120" width="140" height="30" as="geometry" />
        </mxCell>
        <mxCell id="3KaGFFXlT2Mxp6EbRNfA-17" value="NumImatriculation" style="text;strokeColor=none;fillColor=none;align=left;verticalAlign=middle;spacingLeft=4;spacingRight=4;overflow=hidden;points=[[0,0.5],[1,0.5]];portConstraint=eastwest;rotatable=0;whiteSpace=wrap;html=1;" vertex="1" parent="3KaGFFXlT2Mxp6EbRNfA-12">
          <mxGeometry y="150" width="140" height="30" as="geometry" />
        </mxCell>
        <mxCell id="3KaGFFXlT2Mxp6EbRNfA-18" value="DateMiseEnCirculation" style="text;strokeColor=none;fillColor=none;align=left;verticalAlign=middle;spacingLeft=4;spacingRight=4;overflow=hidden;points=[[0,0.5],[1,0.5]];portConstraint=eastwest;rotatable=0;whiteSpace=wrap;html=1;" vertex="1" parent="3KaGFFXlT2Mxp6EbRNfA-12">
          <mxGeometry y="180" width="140" height="30" as="geometry" />
        </mxCell>
        <mxCell id="3KaGFFXlT2Mxp6EbRNfA-19" value="PuissanceFiscale" style="text;strokeColor=none;fillColor=none;align=left;verticalAlign=middle;spacingLeft=4;spacingRight=4;overflow=hidden;points=[[0,0.5],[1,0.5]];portConstraint=eastwest;rotatable=0;whiteSpace=wrap;html=1;" vertex="1" parent="3KaGFFXlT2Mxp6EbRNfA-12">
          <mxGeometry y="210" width="140" height="30" as="geometry" />
        </mxCell>
        <mxCell id="3KaGFFXlT2Mxp6EbRNfA-20" value="VéhiculeTourisme" style="swimlane;fontStyle=0;childLayout=stackLayout;horizontal=1;startSize=30;horizontalStack=0;resizeParent=1;resizeParentMax=0;resizeLast=0;collapsible=1;marginBottom=0;whiteSpace=wrap;html=1;" vertex="1" parent="3KaGFFXlT2Mxp6EbRNfA-1">
          <mxGeometry x="620" y="40" width="140" height="300" as="geometry" />
        </mxCell>
        <mxCell id="3KaGFFXlT2Mxp6EbRNfA-21" value="&lt;u&gt;VéhiculeTourisme&lt;/u&gt;" style="text;strokeColor=none;fillColor=none;align=left;verticalAlign=middle;spacingLeft=4;spacingRight=4;overflow=hidden;points=[[0,0.5],[1,0.5]];portConstraint=eastwest;rotatable=0;whiteSpace=wrap;html=1;" vertex="1" parent="3KaGFFXlT2Mxp6EbRNfA-20">
          <mxGeometry y="30" width="140" height="30" as="geometry" />
        </mxCell>
        <mxCell id="3KaGFFXlT2Mxp6EbRNfA-22" value="CarteGrise" style="text;strokeColor=none;fillColor=none;align=left;verticalAlign=middle;spacingLeft=4;spacingRight=4;overflow=hidden;points=[[0,0.5],[1,0.5]];portConstraint=eastwest;rotatable=0;whiteSpace=wrap;html=1;" vertex="1" parent="3KaGFFXlT2Mxp6EbRNfA-20">
          <mxGeometry y="60" width="140" height="30" as="geometry" />
        </mxCell>
        <mxCell id="3KaGFFXlT2Mxp6EbRNfA-23" value="Type" style="text;strokeColor=none;fillColor=none;align=left;verticalAlign=middle;spacingLeft=4;spacingRight=4;overflow=hidden;points=[[0,0.5],[1,0.5]];portConstraint=eastwest;rotatable=0;whiteSpace=wrap;html=1;" vertex="1" parent="3KaGFFXlT2Mxp6EbRNfA-20">
          <mxGeometry y="90" width="140" height="30" as="geometry" />
        </mxCell>
        <mxCell id="3KaGFFXlT2Mxp6EbRNfA-24" value="Marque" style="text;strokeColor=none;fillColor=none;align=left;verticalAlign=middle;spacingLeft=4;spacingRight=4;overflow=hidden;points=[[0,0.5],[1,0.5]];portConstraint=eastwest;rotatable=0;whiteSpace=wrap;html=1;" vertex="1" parent="3KaGFFXlT2Mxp6EbRNfA-20">
          <mxGeometry y="120" width="140" height="30" as="geometry" />
        </mxCell>
        <mxCell id="3KaGFFXlT2Mxp6EbRNfA-25" value="NumImatriculation" style="text;strokeColor=none;fillColor=none;align=left;verticalAlign=middle;spacingLeft=4;spacingRight=4;overflow=hidden;points=[[0,0.5],[1,0.5]];portConstraint=eastwest;rotatable=0;whiteSpace=wrap;html=1;" vertex="1" parent="3KaGFFXlT2Mxp6EbRNfA-20">
          <mxGeometry y="150" width="140" height="30" as="geometry" />
        </mxCell>
        <mxCell id="3KaGFFXlT2Mxp6EbRNfA-26" value="DateMiseEnCirculation" style="text;strokeColor=none;fillColor=none;align=left;verticalAlign=middle;spacingLeft=4;spacingRight=4;overflow=hidden;points=[[0,0.5],[1,0.5]];portConstraint=eastwest;rotatable=0;whiteSpace=wrap;html=1;" vertex="1" parent="3KaGFFXlT2Mxp6EbRNfA-20">
          <mxGeometry y="180" width="140" height="30" as="geometry" />
        </mxCell>
        <mxCell id="3KaGFFXlT2Mxp6EbRNfA-27" value="PuissanceFiscale" style="text;strokeColor=none;fillColor=none;align=left;verticalAlign=middle;spacingLeft=4;spacingRight=4;overflow=hidden;points=[[0,0.5],[1,0.5]];portConstraint=eastwest;rotatable=0;whiteSpace=wrap;html=1;" vertex="1" parent="3KaGFFXlT2Mxp6EbRNfA-20">
          <mxGeometry y="210" width="140" height="30" as="geometry" />
        </mxCell>
        <mxCell id="3KaGFFXlT2Mxp6EbRNfA-28" value="NbPortes" style="text;strokeColor=none;fillColor=none;align=left;verticalAlign=middle;spacingLeft=4;spacingRight=4;overflow=hidden;points=[[0,0.5],[1,0.5]];portConstraint=eastwest;rotatable=0;whiteSpace=wrap;html=1;" vertex="1" parent="3KaGFFXlT2Mxp6EbRNfA-20">
          <mxGeometry y="240" width="140" height="30" as="geometry" />
        </mxCell>
        <mxCell id="3KaGFFXlT2Mxp6EbRNfA-29" value="PassagersAutorisés" style="text;strokeColor=none;fillColor=none;align=left;verticalAlign=middle;spacingLeft=4;spacingRight=4;overflow=hidden;points=[[0,0.5],[1,0.5]];portConstraint=eastwest;rotatable=0;whiteSpace=wrap;html=1;" vertex="1" parent="3KaGFFXlT2Mxp6EbRNfA-20">
          <mxGeometry y="270" width="140" height="30" as="geometry" />
        </mxCell>
        <mxCell id="3KaGFFXlT2Mxp6EbRNfA-30" value="VéhiculeUtilitaire" style="swimlane;fontStyle=0;childLayout=stackLayout;horizontal=1;startSize=30;horizontalStack=0;resizeParent=1;resizeParentMax=0;resizeLast=0;collapsible=1;marginBottom=0;whiteSpace=wrap;html=1;" vertex="1" parent="3KaGFFXlT2Mxp6EbRNfA-1">
          <mxGeometry x="650" y="470" width="140" height="360" as="geometry" />
        </mxCell>
        <mxCell id="3KaGFFXlT2Mxp6EbRNfA-31" value="&lt;u&gt;VéhiculeUtilitaire&lt;/u&gt;" style="text;strokeColor=none;fillColor=none;align=left;verticalAlign=middle;spacingLeft=4;spacingRight=4;overflow=hidden;points=[[0,0.5],[1,0.5]];portConstraint=eastwest;rotatable=0;whiteSpace=wrap;html=1;" vertex="1" parent="3KaGFFXlT2Mxp6EbRNfA-30">
          <mxGeometry y="30" width="140" height="30" as="geometry" />
        </mxCell>
        <mxCell id="3KaGFFXlT2Mxp6EbRNfA-32" value="CarteGrise" style="text;strokeColor=none;fillColor=none;align=left;verticalAlign=middle;spacingLeft=4;spacingRight=4;overflow=hidden;points=[[0,0.5],[1,0.5]];portConstraint=eastwest;rotatable=0;whiteSpace=wrap;html=1;" vertex="1" parent="3KaGFFXlT2Mxp6EbRNfA-30">
          <mxGeometry y="60" width="140" height="30" as="geometry" />
        </mxCell>
        <mxCell id="3KaGFFXlT2Mxp6EbRNfA-33" value="Type" style="text;strokeColor=none;fillColor=none;align=left;verticalAlign=middle;spacingLeft=4;spacingRight=4;overflow=hidden;points=[[0,0.5],[1,0.5]];portConstraint=eastwest;rotatable=0;whiteSpace=wrap;html=1;" vertex="1" parent="3KaGFFXlT2Mxp6EbRNfA-30">
          <mxGeometry y="90" width="140" height="30" as="geometry" />
        </mxCell>
        <mxCell id="3KaGFFXlT2Mxp6EbRNfA-34" value="Marque" style="text;strokeColor=none;fillColor=none;align=left;verticalAlign=middle;spacingLeft=4;spacingRight=4;overflow=hidden;points=[[0,0.5],[1,0.5]];portConstraint=eastwest;rotatable=0;whiteSpace=wrap;html=1;" vertex="1" parent="3KaGFFXlT2Mxp6EbRNfA-30">
          <mxGeometry y="120" width="140" height="30" as="geometry" />
        </mxCell>
        <mxCell id="3KaGFFXlT2Mxp6EbRNfA-35" value="NumImatriculation" style="text;strokeColor=none;fillColor=none;align=left;verticalAlign=middle;spacingLeft=4;spacingRight=4;overflow=hidden;points=[[0,0.5],[1,0.5]];portConstraint=eastwest;rotatable=0;whiteSpace=wrap;html=1;" vertex="1" parent="3KaGFFXlT2Mxp6EbRNfA-30">
          <mxGeometry y="150" width="140" height="30" as="geometry" />
        </mxCell>
        <mxCell id="3KaGFFXlT2Mxp6EbRNfA-36" value="DateMiseEnCirculation" style="text;strokeColor=none;fillColor=none;align=left;verticalAlign=middle;spacingLeft=4;spacingRight=4;overflow=hidden;points=[[0,0.5],[1,0.5]];portConstraint=eastwest;rotatable=0;whiteSpace=wrap;html=1;" vertex="1" parent="3KaGFFXlT2Mxp6EbRNfA-30">
          <mxGeometry y="180" width="140" height="30" as="geometry" />
        </mxCell>
        <mxCell id="3KaGFFXlT2Mxp6EbRNfA-37" value="PuissanceFiscale" style="text;strokeColor=none;fillColor=none;align=left;verticalAlign=middle;spacingLeft=4;spacingRight=4;overflow=hidden;points=[[0,0.5],[1,0.5]];portConstraint=eastwest;rotatable=0;whiteSpace=wrap;html=1;" vertex="1" parent="3KaGFFXlT2Mxp6EbRNfA-30">
          <mxGeometry y="210" width="140" height="30" as="geometry" />
        </mxCell>
        <mxCell id="3KaGFFXlT2Mxp6EbRNfA-38" value="PoidsAVide" style="text;strokeColor=none;fillColor=none;align=left;verticalAlign=middle;spacingLeft=4;spacingRight=4;overflow=hidden;points=[[0,0.5],[1,0.5]];portConstraint=eastwest;rotatable=0;whiteSpace=wrap;html=1;" vertex="1" parent="3KaGFFXlT2Mxp6EbRNfA-30">
          <mxGeometry y="240" width="140" height="30" as="geometry" />
        </mxCell>
        <mxCell id="3KaGFFXlT2Mxp6EbRNfA-39" value="PoidsAutoriseEnCharge" style="text;strokeColor=none;fillColor=none;align=left;verticalAlign=middle;spacingLeft=4;spacingRight=4;overflow=hidden;points=[[0,0.5],[1,0.5]];portConstraint=eastwest;rotatable=0;whiteSpace=wrap;html=1;" vertex="1" parent="3KaGFFXlT2Mxp6EbRNfA-30">
          <mxGeometry y="270" width="140" height="30" as="geometry" />
        </mxCell>
        <mxCell id="3KaGFFXlT2Mxp6EbRNfA-40" value="Longueur" style="text;strokeColor=none;fillColor=none;align=left;verticalAlign=middle;spacingLeft=4;spacingRight=4;overflow=hidden;points=[[0,0.5],[1,0.5]];portConstraint=eastwest;rotatable=0;whiteSpace=wrap;html=1;" vertex="1" parent="3KaGFFXlT2Mxp6EbRNfA-30">
          <mxGeometry y="300" width="140" height="30" as="geometry" />
        </mxCell>
        <mxCell id="3KaGFFXlT2Mxp6EbRNfA-41" value="Largeur" style="text;strokeColor=none;fillColor=none;align=left;verticalAlign=middle;spacingLeft=4;spacingRight=4;overflow=hidden;points=[[0,0.5],[1,0.5]];portConstraint=eastwest;rotatable=0;whiteSpace=wrap;html=1;" vertex="1" parent="3KaGFFXlT2Mxp6EbRNfA-30">
          <mxGeometry y="330" width="140" height="30" as="geometry" />
        </mxCell>
        <mxCell id="3KaGFFXlT2Mxp6EbRNfA-42" value="Contrats" style="swimlane;fontStyle=0;childLayout=stackLayout;horizontal=1;startSize=30;horizontalStack=0;resizeParent=1;resizeParentMax=0;resizeLast=0;collapsible=1;marginBottom=0;whiteSpace=wrap;html=1;" vertex="1" parent="3KaGFFXlT2Mxp6EbRNfA-1">
          <mxGeometry x="40" y="690" width="140" height="150" as="geometry" />
        </mxCell>
        <mxCell id="3KaGFFXlT2Mxp6EbRNfA-43" value="Contrat" style="text;strokeColor=none;fillColor=none;align=left;verticalAlign=middle;spacingLeft=4;spacingRight=4;overflow=hidden;points=[[0,0.5],[1,0.5]];portConstraint=eastwest;rotatable=0;whiteSpace=wrap;html=1;" vertex="1" parent="3KaGFFXlT2Mxp6EbRNfA-42">
          <mxGeometry y="30" width="140" height="30" as="geometry" />
        </mxCell>
        <mxCell id="3KaGFFXlT2Mxp6EbRNfA-44" value="Date" style="text;strokeColor=none;fillColor=none;align=left;verticalAlign=middle;spacingLeft=4;spacingRight=4;overflow=hidden;points=[[0,0.5],[1,0.5]];portConstraint=eastwest;rotatable=0;whiteSpace=wrap;html=1;" vertex="1" parent="3KaGFFXlT2Mxp6EbRNfA-42">
          <mxGeometry y="60" width="140" height="30" as="geometry" />
        </mxCell>
        <mxCell id="3KaGFFXlT2Mxp6EbRNfA-45" value="NumContrat" style="text;strokeColor=none;fillColor=none;align=left;verticalAlign=middle;spacingLeft=4;spacingRight=4;overflow=hidden;points=[[0,0.5],[1,0.5]];portConstraint=eastwest;rotatable=0;whiteSpace=wrap;html=1;" vertex="1" parent="3KaGFFXlT2Mxp6EbRNfA-42">
          <mxGeometry y="90" width="140" height="30" as="geometry" />
        </mxCell>
        <mxCell id="3KaGFFXlT2Mxp6EbRNfA-46" value="CatégorieContrat" style="text;strokeColor=none;fillColor=none;align=left;verticalAlign=middle;spacingLeft=4;spacingRight=4;overflow=hidden;points=[[0,0.5],[1,0.5]];portConstraint=eastwest;rotatable=0;whiteSpace=wrap;html=1;" vertex="1" parent="3KaGFFXlT2Mxp6EbRNfA-42">
          <mxGeometry y="120" width="140" height="30" as="geometry" />
        </mxCell>
        <mxCell id="W5nPpInR1jTv7JktLdpI-0" value="LienContratsPropriétaires" style="swimlane;fontStyle=0;childLayout=stackLayout;horizontal=1;startSize=30;horizontalStack=0;resizeParent=1;resizeParentMax=0;resizeLast=0;collapsible=1;marginBottom=0;whiteSpace=wrap;html=1;" vertex="1" parent="3KaGFFXlT2Mxp6EbRNfA-1">
          <mxGeometry x="150" y="550" width="140" height="120" as="geometry" />
        </mxCell>
        <mxCell id="W5nPpInR1jTv7JktLdpI-1" value="#Propriétaire" style="text;strokeColor=none;fillColor=none;align=left;verticalAlign=middle;spacingLeft=4;spacingRight=4;overflow=hidden;points=[[0,0.5],[1,0.5]];portConstraint=eastwest;rotatable=0;whiteSpace=wrap;html=1;" vertex="1" parent="W5nPpInR1jTv7JktLdpI-0">
          <mxGeometry y="30" width="140" height="30" as="geometry" />
        </mxCell>
        <mxCell id="W5nPpInR1jTv7JktLdpI-2" value="#Contrat" style="text;strokeColor=none;fillColor=none;align=left;verticalAlign=middle;spacingLeft=4;spacingRight=4;overflow=hidden;points=[[0,0.5],[1,0.5]];portConstraint=eastwest;rotatable=0;whiteSpace=wrap;html=1;" vertex="1" parent="W5nPpInR1jTv7JktLdpI-0">
          <mxGeometry y="60" width="140" height="30" as="geometry" />
        </mxCell>
        <mxCell id="W5nPpInR1jTv7JktLdpI-3" value="Attaché à" style="text;strokeColor=none;fillColor=none;align=left;verticalAlign=middle;spacingLeft=4;spacingRight=4;overflow=hidden;points=[[0,0.5],[1,0.5]];portConstraint=eastwest;rotatable=0;whiteSpace=wrap;html=1;" vertex="1" parent="W5nPpInR1jTv7JktLdpI-0">
          <mxGeometry y="90" width="140" height="30" as="geometry" />
        </mxCell>
        <mxCell id="EhCR1KrM02ol2O1MYKi_-0" value="Lien VéhiculeT-U-Proprio" style="swimlane;fontStyle=0;childLayout=stackLayout;horizontal=1;startSize=30;horizontalStack=0;resizeParent=1;resizeParentMax=0;resizeLast=0;collapsible=1;marginBottom=0;whiteSpace=wrap;html=1;" vertex="1" parent="3KaGFFXlT2Mxp6EbRNfA-1">
          <mxGeometry x="470" y="320" width="140" height="180" as="geometry" />
        </mxCell>
        <mxCell id="EhCR1KrM02ol2O1MYKi_-1" value="#Propriétaire" style="text;strokeColor=none;fillColor=none;align=left;verticalAlign=middle;spacingLeft=4;spacingRight=4;overflow=hidden;points=[[0,0.5],[1,0.5]];portConstraint=eastwest;rotatable=0;whiteSpace=wrap;html=1;" vertex="1" parent="EhCR1KrM02ol2O1MYKi_-0">
          <mxGeometry y="30" width="140" height="30" as="geometry" />
        </mxCell>
        <mxCell id="EhCR1KrM02ol2O1MYKi_-5" value="#Véhicule" style="text;strokeColor=none;fillColor=none;align=left;verticalAlign=middle;spacingLeft=4;spacingRight=4;overflow=hidden;points=[[0,0.5],[1,0.5]];portConstraint=eastwest;rotatable=0;whiteSpace=wrap;html=1;" vertex="1" parent="EhCR1KrM02ol2O1MYKi_-0">
          <mxGeometry y="60" width="140" height="30" as="geometry" />
        </mxCell>
        <mxCell id="EhCR1KrM02ol2O1MYKi_-2" value="#VéhiculeUtilitaire" style="text;strokeColor=none;fillColor=none;align=left;verticalAlign=middle;spacingLeft=4;spacingRight=4;overflow=hidden;points=[[0,0.5],[1,0.5]];portConstraint=eastwest;rotatable=0;whiteSpace=wrap;html=1;" vertex="1" parent="EhCR1KrM02ol2O1MYKi_-0">
          <mxGeometry y="90" width="140" height="30" as="geometry" />
        </mxCell>
        <mxCell id="EhCR1KrM02ol2O1MYKi_-4" value="#VéhiculeTourisme" style="text;strokeColor=none;fillColor=none;align=left;verticalAlign=middle;spacingLeft=4;spacingRight=4;overflow=hidden;points=[[0,0.5],[1,0.5]];portConstraint=eastwest;rotatable=0;whiteSpace=wrap;html=1;" vertex="1" parent="EhCR1KrM02ol2O1MYKi_-0">
          <mxGeometry y="120" width="140" height="30" as="geometry" />
        </mxCell>
        <mxCell id="EhCR1KrM02ol2O1MYKi_-3" value="Loue" style="text;strokeColor=none;fillColor=none;align=left;verticalAlign=middle;spacingLeft=4;spacingRight=4;overflow=hidden;points=[[0,0.5],[1,0.5]];portConstraint=eastwest;rotatable=0;whiteSpace=wrap;html=1;" vertex="1" parent="EhCR1KrM02ol2O1MYKi_-0">
          <mxGeometry y="150" width="140" height="30" as="geometry" />
        </mxCell>
        <mxCell id="EhCR1KrM02ol2O1MYKi_-7" value="List" style="swimlane;fontStyle=0;childLayout=stackLayout;horizontal=1;startSize=30;horizontalStack=0;resizeParent=1;resizeParentMax=0;resizeLast=0;collapsible=1;marginBottom=0;whiteSpace=wrap;html=1;" vertex="1" parent="3KaGFFXlT2Mxp6EbRNfA-1">
          <mxGeometry x="120" y="70" width="140" height="120" as="geometry" />
        </mxCell>
        <mxCell id="EhCR1KrM02ol2O1MYKi_-8" value="#Véhicule" style="text;strokeColor=none;fillColor=none;align=left;verticalAlign=middle;spacingLeft=4;spacingRight=4;overflow=hidden;points=[[0,0.5],[1,0.5]];portConstraint=eastwest;rotatable=0;whiteSpace=wrap;html=1;" vertex="1" parent="EhCR1KrM02ol2O1MYKi_-7">
          <mxGeometry y="30" width="140" height="30" as="geometry" />
        </mxCell>
        <mxCell id="EhCR1KrM02ol2O1MYKi_-9" value="#ConseillerAgence" style="text;strokeColor=none;fillColor=none;align=left;verticalAlign=middle;spacingLeft=4;spacingRight=4;overflow=hidden;points=[[0,0.5],[1,0.5]];portConstraint=eastwest;rotatable=0;whiteSpace=wrap;html=1;" vertex="1" parent="EhCR1KrM02ol2O1MYKi_-7">
          <mxGeometry y="60" width="140" height="30" as="geometry" />
        </mxCell>
        <mxCell id="EhCR1KrM02ol2O1MYKi_-10" value="Enregistre" style="text;strokeColor=none;fillColor=none;align=left;verticalAlign=middle;spacingLeft=4;spacingRight=4;overflow=hidden;points=[[0,0.5],[1,0.5]];portConstraint=eastwest;rotatable=0;whiteSpace=wrap;html=1;" vertex="1" parent="EhCR1KrM02ol2O1MYKi_-7">
          <mxGeometry y="90" width="140" height="30" as="geometry" />
        </mxCell>
      </root>
    </mxGraphModel>
  </diagram>
</mxfile>
